<?xml version="1.0" encoding="utf-8"?>
<!-- Generator: Adobe Illustrator 24.0.1, SVG Export Plug-In . SVG Version: 6.00 Build 0)  -->
<svg version="1.1" id="Layer_1" xmlns="http://www.w3.org/2000/svg" xmlns:xlink="http://www.w3.org/1999/xlink" x="0px" y="0px"
	 viewBox="0 0 274.9 110.8" style="enable-background:new 0 0 274.9 110.8;" xml:space="preserve">
<g>
	<g>
		<path d="M126.2,62.9h-6.7v4.6h7.9v2.8H116V53.1h11.4V56h-7.9v4.1h6.7V62.9z"/>
		<path d="M139.9,62.9h-6.7v4.6h7.9v2.8h-11.4V53.1h11.4V56h-7.9v4.1h6.7V62.9z"/>
		<path d="M152.2,65.8c0-0.7-0.2-1.2-0.7-1.5s-1.3-0.7-2.5-1.1c-1.2-0.4-2.2-0.8-2.9-1.2c-1.9-1.1-2.9-2.5-2.9-4.3
			c0-0.9,0.3-1.8,0.8-2.5c0.5-0.7,1.3-1.3,2.2-1.7c1-0.4,2.1-0.6,3.3-0.6c1.2,0,2.3,0.2,3.3,0.7c1,0.4,1.7,1.1,2.2,1.9
			c0.5,0.8,0.8,1.7,0.8,2.8h-3.5c0-0.8-0.2-1.4-0.7-1.8c-0.5-0.4-1.2-0.7-2.1-0.7c-0.9,0-1.5,0.2-2,0.5c-0.5,0.4-0.7,0.8-0.7,1.4
			c0,0.6,0.3,1,0.8,1.4c0.6,0.4,1.4,0.7,2.5,1.1c2,0.6,3.5,1.4,4.4,2.3c0.9,0.9,1.4,2,1.4,3.4c0,1.5-0.6,2.7-1.7,3.5
			c-1.1,0.8-2.6,1.3-4.5,1.3c-1.3,0-2.5-0.2-3.6-0.7c-1.1-0.5-1.9-1.1-2.5-2c-0.6-0.8-0.8-1.8-0.8-2.9h3.5c0,1.9,1.1,2.8,3.4,2.8
			c0.8,0,1.5-0.2,2-0.5C152,66.9,152.2,66.4,152.2,65.8z"/>
		<path d="M171.2,56H166v14.3h-3.5V56h-5.1v-2.9h13.9V56z"/>
		<path d="M177.1,70.3h-3.5V53.1h3.5V70.3z"/>
		<path d="M124.8,88.6c0-0.7-0.2-1.2-0.7-1.5s-1.3-0.7-2.5-1.1c-1.2-0.4-2.2-0.8-2.9-1.2c-1.9-1.1-2.9-2.5-2.9-4.3
			c0-0.9,0.3-1.8,0.8-2.5c0.5-0.7,1.3-1.3,2.2-1.7c1-0.4,2.1-0.6,3.3-0.6c1.2,0,2.3,0.2,3.3,0.7c1,0.4,1.7,1.1,2.2,1.9
			s0.8,1.7,0.8,2.8h-3.5c0-0.8-0.2-1.4-0.7-1.8c-0.5-0.4-1.2-0.7-2.1-0.7c-0.9,0-1.5,0.2-2,0.5c-0.5,0.4-0.7,0.8-0.7,1.4
			c0,0.6,0.3,1,0.8,1.4c0.6,0.4,1.4,0.7,2.5,1.1c2,0.6,3.5,1.4,4.4,2.3c0.9,0.9,1.4,2,1.4,3.4c0,1.5-0.6,2.7-1.7,3.5
			c-1.1,0.8-2.6,1.3-4.5,1.3c-1.3,0-2.5-0.2-3.6-0.7c-1.1-0.5-1.9-1.1-2.5-2c-0.6-0.8-0.8-1.8-0.8-2.9h3.5c0,1.9,1.1,2.8,3.4,2.8
			c0.8,0,1.5-0.2,2-0.5C124.6,89.7,124.8,89.2,124.8,88.6z"/>
		<path d="M143.7,78.8h-5.2v14.3H135V78.8h-5.1v-2.9h13.9V78.8z"/>
		<path d="M154.2,89.6H148l-1.2,3.5h-3.7l6.3-17.2h3.3l6.4,17.2h-3.7L154.2,89.6z M149,86.7h4.3l-2.1-6.4L149,86.7z"/>
		<path d="M172.4,78.8h-5.2v14.3h-3.5V78.8h-5.1v-2.9h13.9V78.8z"/>
		<path d="M178.3,93.1h-3.5V75.9h3.5V93.1z"/>
		<path d="M190.6,88.6c0-0.7-0.2-1.2-0.7-1.5s-1.3-0.7-2.5-1.1s-2.2-0.8-2.9-1.2c-1.9-1.1-2.9-2.5-2.9-4.3c0-0.9,0.3-1.8,0.8-2.5
			c0.5-0.7,1.3-1.3,2.2-1.7c1-0.4,2.1-0.6,3.3-0.6c1.2,0,2.3,0.2,3.3,0.7c1,0.4,1.7,1.1,2.2,1.9s0.8,1.7,0.8,2.8h-3.5
			c0-0.8-0.2-1.4-0.7-1.8c-0.5-0.4-1.2-0.7-2.1-0.7c-0.9,0-1.5,0.2-2,0.5c-0.5,0.4-0.7,0.8-0.7,1.4c0,0.6,0.3,1,0.8,1.4
			c0.6,0.4,1.4,0.7,2.5,1.1c2,0.6,3.5,1.4,4.4,2.3c0.9,0.9,1.4,2,1.4,3.4c0,1.5-0.6,2.7-1.7,3.5c-1.1,0.8-2.6,1.3-4.5,1.3
			c-1.3,0-2.5-0.2-3.6-0.7c-1.1-0.5-1.9-1.1-2.5-2c-0.6-0.8-0.8-1.8-0.8-2.9h3.5c0,1.9,1.1,2.8,3.4,2.8c0.8,0,1.5-0.2,2-0.5
			C190.4,89.7,190.6,89.2,190.6,88.6z"/>
		<path d="M209.6,78.8h-5.2v14.3h-3.5V78.8h-5.1v-2.9h13.9V78.8z"/>
		<path d="M215.6,93.1h-3.5V75.9h3.5V93.1z"/>
		<path d="M224.4,86.2l-1.8,2v4.9h-3.5V75.9h3.5v7.8l1.5-2.1l4.3-5.7h4.3l-6,7.6l6.2,9.6h-4.2L224.4,86.2z"/>
		<path d="M244.1,89.6H238l-1.2,3.5h-3.7l6.3-17.2h3.3l6.4,17.2h-3.7L244.1,89.6z M238.9,86.7h4.3l-2.1-6.4L238.9,86.7z"/>
	</g>
	<g>
		<g>
			<circle cx="95.6" cy="19.6" r="2.2"/>
			<circle cx="59.9" cy="19.6" r="2.2"/>
			<circle cx="24.2" cy="19.6" r="2.2"/>
			<circle cx="95.6" cy="55.3" r="2.2"/>
			<circle cx="59.9" cy="55.3" r="2.2"/>
			<circle cx="24.2" cy="55.3" r="2.2"/>
			<circle cx="95.6" cy="91" r="2.2"/>
			<circle cx="59.9" cy="91" r="2.2"/>
			<circle cx="24.2" cy="91" r="2.2"/>
		</g>
	</g>
</g>
</svg>
